<svg width="116" height="36" viewBox="0 0 116 36" fill="none" xmlns="http://www.w3.org/2000/svg">
<g clip-path="url(#clip0_50_435)">
<path d="M33.1709 25.5141C32.9894 25.0754 32.8192 24.6141 32.6377 24.2204L31.7982 22.3416L31.7642 22.3079C29.2684 16.9079 26.6024 11.4179 23.7776 6.01789L23.6642 5.79289C23.3805 5.26414 23.0969 4.67914 22.802 4.13914C22.4389 3.49789 22.0873 2.81164 21.5087 2.15914C20.9447 1.47642 20.235 0.926356 19.4306 0.548656C18.6263 0.170956 17.7474 -0.0249634 16.8574 -0.0249634C15.9675 -0.0249634 15.0886 0.170956 14.2842 0.548656C13.4799 0.926356 12.7701 1.47642 12.2062 2.15914C11.673 2.81164 11.2759 3.49789 10.9129 4.13914C10.6293 4.72414 10.3457 5.29789 10.0507 5.82664L9.93726 6.05164C7.15785 11.4516 4.44651 16.9416 1.95071 22.3416L1.88264 22.4091C1.63306 22.9941 1.3381 23.6016 1.05449 24.2541C0.872977 24.6479 0.691464 25.0754 0.509952 25.5479C0.0199049 26.7852 -0.136583 28.1277 0.0559121 29.4432C0.248407 30.7587 0.783239 32.0017 1.6077 33.0499C2.43216 34.098 3.51779 34.9149 4.7576 35.4203C5.99741 35.9256 7.34861 36.1019 8.67802 35.9316C9.95254 35.7653 11.1798 35.3443 12.2856 34.6941C13.7604 33.8729 15.1784 32.6804 16.7667 30.9591C18.3549 32.6804 19.807 33.8729 21.2478 34.7054C22.6333 35.5118 24.2023 35.957 25.8083 35.9991C27.668 36.0068 29.4678 35.347 30.8753 34.1414C32.2828 32.9359 33.2029 31.2662 33.4658 29.4404C33.7697 28.1284 33.6669 26.756 33.1709 25.5029V25.5141ZM16.8801 27.3816C14.9289 24.9066 13.6583 22.6341 13.2272 20.6879C13.0486 19.9667 13.0101 19.2184 13.1137 18.4829C13.1931 17.9091 13.4087 17.4029 13.7036 16.9754C14.3843 15.9966 15.5755 15.3891 16.8801 15.3891C17.4997 15.3704 18.1143 15.5045 18.6687 15.7794C19.2231 16.0542 19.7 16.4614 20.0566 16.9641C20.3515 17.4141 20.5671 17.9091 20.6352 18.4829C20.7486 19.1354 20.7032 19.8891 20.5217 20.6879C20.0906 22.6004 18.82 24.8954 16.8801 27.3816ZM31.3331 29.0466C31.2042 29.9736 30.8326 30.8509 30.2554 31.591C29.6781 32.3312 28.9154 32.9085 28.0431 33.2654C27.181 33.6254 26.228 33.7266 25.2978 33.6254C24.3902 33.5129 23.4826 33.2204 22.5524 32.6804C21.0078 31.7337 19.619 30.5575 18.4343 29.1929C20.8167 26.2679 22.2574 23.6016 22.802 21.2279C23.0629 20.1029 23.0969 19.0904 22.9835 18.1566C22.8418 17.2716 22.509 16.4273 22.0078 15.6816C21.4356 14.8731 20.6719 14.2163 19.7837 13.769C18.8955 13.3218 17.9101 13.0977 16.9142 13.1166C14.8154 13.1166 12.9436 14.0841 11.8091 15.6704C11.2984 16.4142 10.9684 17.2652 10.8448 18.1566C10.6973 19.1016 10.7314 20.1479 11.0263 21.2279C11.5709 23.6016 13.0457 26.3016 15.394 29.2154C14.2294 30.6061 12.8373 31.7926 11.2759 32.7254C10.3343 33.2654 9.4381 33.5466 8.53054 33.6591C7.11915 33.8384 5.69344 33.458 4.56331 32.6006C3.43318 31.7433 2.68998 30.4782 2.49525 29.0804C2.3818 28.1804 2.46121 27.2804 2.82424 26.2679C2.93768 25.9079 3.10785 25.5479 3.28936 25.1204C3.53894 24.5354 3.8339 23.9279 4.11751 23.3204L4.16289 23.2416C6.61331 17.8754 9.29062 12.3966 12.07 7.03039L12.1835 6.80539C12.4671 6.26539 12.7507 5.69164 13.0457 5.15164C13.3406 4.57789 13.6583 4.02664 14.0667 3.57664C14.4202 3.15817 14.8619 2.82163 15.3607 2.59071C15.8596 2.3598 16.4034 2.24013 16.9539 2.24013C17.5044 2.24013 18.0482 2.3598 18.547 2.59071C19.0458 2.82163 19.4875 3.15817 19.841 3.57664C20.2381 4.02664 20.5671 4.57789 20.8621 5.15164C21.1457 5.69164 21.4293 6.27664 21.7242 6.80539L21.8377 7.03039C24.6057 12.3966 27.2831 17.8754 29.7789 23.2416L29.8129 23.2754C30.1078 23.8604 30.3574 24.5129 30.641 25.0754C30.8226 25.5141 31.0041 25.8629 31.1175 26.2341C31.3331 27.2466 31.4465 28.1466 31.3331 29.0466ZM47.1247 27.1341C46.2698 27.1465 45.4231 26.9679 44.6474 26.6115C43.8716 26.2551 43.1868 25.7301 42.6436 25.0754C41.423 23.6803 40.7752 21.8816 40.8284 20.0354C40.8098 18.149 41.4785 16.3193 42.7116 14.8829C43.282 14.2198 43.9921 13.6889 44.7918 13.3273C45.5915 12.9658 46.4614 12.7825 47.3402 12.7904C48.1671 12.768 48.9862 12.9544 49.7205 13.3323C50.4548 13.7101 51.0801 14.267 51.5377 14.9504L51.6511 13.1841H54.9637V26.7741H51.6398L51.5263 24.7941C51.0546 25.5239 50.4026 26.1219 49.6322 26.5315C48.8618 26.941 47.9986 27.1485 47.1247 27.1341ZM47.9868 23.8941C48.6448 23.8941 49.2234 23.7141 49.7679 23.3879C50.2671 23.0279 50.6755 22.5554 50.9931 21.9816C51.2768 21.4079 51.4242 20.7216 51.4242 19.9566C51.4685 19.2922 51.338 18.6278 51.0457 18.0283C50.7534 17.4288 50.3092 16.9149 49.7566 16.5366C49.2256 16.2086 48.6125 16.0346 47.9868 16.0346C47.3612 16.0346 46.7481 16.2086 46.2171 16.5366C45.7179 16.8966 45.3095 17.3691 44.9919 17.9429C44.6919 18.5756 44.5443 19.2689 44.5608 19.9679C44.5166 20.6323 44.647 21.2968 44.9393 21.8962C45.2316 22.4957 45.6758 23.0097 46.2284 23.3879C46.7616 23.7141 47.3402 23.8941 47.9868 23.8941ZM60.636 9.51664C60.636 9.91039 60.5679 10.2704 60.3864 10.5629C60.2049 10.8441 59.9553 11.1029 59.6263 11.2829C59.2973 11.4629 58.9457 11.5304 58.5826 11.5304C58.2196 11.5304 57.8566 11.4629 57.5276 11.2829C57.2164 11.1111 56.9548 10.8633 56.7675 10.5629C56.5918 10.2424 56.5057 9.88122 56.5179 9.51664C56.5179 9.11164 56.5973 8.75164 56.7675 8.47039C56.949 8.13289 57.2099 7.93039 57.5276 7.75039C57.8566 7.57039 58.2083 7.49164 58.5826 7.49164C58.9437 7.48339 59.3008 7.5682 59.619 7.73779C59.9371 7.90737 60.2055 8.15592 60.3978 8.45914C60.5629 8.78714 60.6446 9.15016 60.636 9.51664ZM56.7789 26.7291V13.1616H60.3864V26.7516H56.7675L56.7789 26.7291ZM70.0293 16.7166V16.7616C69.8591 16.6829 69.6322 16.6491 69.462 16.6154C69.2352 16.5704 69.0536 16.5704 68.8381 16.5704C67.8284 16.5704 67.0683 16.8629 66.5692 17.4704C66.0247 18.0891 65.7751 18.9554 65.7751 20.0691V26.7404H62.1562V13.1504H65.4801L65.5936 15.2091C65.9566 14.4891 66.3877 13.9491 67.0003 13.5441C67.6096 13.1506 68.327 12.9541 69.0536 12.9816C69.3146 12.9816 69.5641 13.0041 69.7797 13.0491C69.8931 13.0829 69.9612 13.0829 70.0293 13.1166V16.7166ZM71.4814 26.7291V7.58164H75.0889V14.8941C75.5994 14.2416 76.178 13.7354 76.9041 13.3416C78.0535 12.7828 79.3593 12.6243 80.6107 12.8916C81.8621 13.159 82.9862 13.8367 83.8015 14.8154C85.0248 16.2133 85.6728 18.0166 85.6167 19.8666C85.6353 21.753 84.9666 23.5827 83.7335 25.0191C83.1631 25.6822 82.453 26.2132 81.6533 26.5747C80.8536 26.9362 79.9837 27.1195 79.1049 27.1116C78.278 27.1341 77.4588 26.9476 76.7246 26.5698C75.9903 26.1919 75.365 25.6351 74.9074 24.9516L74.794 26.7179L71.4814 26.7516V26.7291ZM78.4583 23.8941C79.1049 23.8941 79.6835 23.7141 80.228 23.3879C80.7272 23.0279 81.1356 22.5554 81.4532 21.9816C81.7482 21.4079 81.8843 20.7216 81.8843 19.9566C81.8843 19.2029 81.7482 18.5166 81.4532 17.9429C81.1553 17.3897 80.7367 16.9093 80.228 16.5366C79.697 16.2086 79.0839 16.0346 78.4583 16.0346C77.8326 16.0346 77.2195 16.2086 76.6885 16.5366C76.178 16.8966 75.781 17.3691 75.452 17.9429C75.152 18.5756 75.0044 19.2689 75.0209 19.9679C74.9766 20.6323 75.1071 21.2968 75.3994 21.8962C75.6917 22.4957 76.1359 23.0097 76.6885 23.3879C77.2217 23.7141 77.8003 23.8941 78.4583 23.8941ZM86.978 26.7404V13.1504H90.302L90.4154 14.9166C90.8331 14.2396 91.4256 13.6855 92.1317 13.3117C92.8377 12.9379 93.6317 12.7579 94.4314 12.7904C95.3458 12.7747 96.2447 13.0268 97.0155 13.515C97.7863 14.0033 98.3948 14.706 98.765 15.5354C99.162 16.3904 99.3776 17.4479 99.3776 18.6291V26.7741H95.7587V19.1016C95.7587 18.1566 95.5431 17.4141 95.112 16.8629C94.6809 16.3229 94.091 16.0304 93.3423 16.0304C92.7978 16.0304 92.3213 16.1429 91.9015 16.3904C91.5045 16.6491 91.1755 16.9754 90.9259 17.4366C90.6736 17.9029 90.5484 18.4264 90.5629 18.9554V26.7404H86.978ZM101.181 26.7404V7.57039H104.8V14.8829C105.29 14.2268 105.928 13.693 106.663 13.3239C107.397 12.9548 108.208 12.7606 109.032 12.7566C109.887 12.7442 110.733 12.9229 111.509 13.2793C112.285 13.6357 112.97 14.1607 113.513 14.8154C114.727 16.2132 115.371 18.011 115.317 19.8554C115.336 21.742 114.668 23.572 113.433 25.0079C112.863 25.6709 112.153 26.2019 111.353 26.5635C110.554 26.925 109.684 27.1083 108.805 27.1004C107.978 27.1228 107.159 26.9364 106.425 26.5585C105.69 26.1807 105.065 25.6238 104.607 24.9404L104.505 26.7066L101.181 26.7404ZM108.192 23.8941C108.85 23.8941 109.429 23.7141 109.962 23.3879C110.473 23.0279 110.87 22.5554 111.199 21.9816C111.482 21.4079 111.63 20.7216 111.63 19.9566C111.674 19.2922 111.543 18.6278 111.251 18.0283C110.959 17.4288 110.515 16.9149 109.962 16.5366C109.431 16.2086 108.818 16.0346 108.192 16.0346C107.567 16.0346 106.954 16.2086 106.423 16.5366C105.923 16.8966 105.515 17.3691 105.197 17.9429C104.881 18.57 104.732 19.2674 104.766 19.9679C104.722 20.6323 104.852 21.2968 105.145 21.8962C105.437 22.4957 105.881 23.0097 106.434 23.3879C106.967 23.7141 107.512 23.8941 108.192 23.8941Z" fill="#FF385C"/>
</g>
<defs>
<clipPath id="clip0_50_435">
<rect width="115.714" height="36" fill="white"/>
</clipPath>
</defs>
</svg>
