<svg width="96" height="20" viewBox="0 0 96 20" fill="none" xmlns="http://www.w3.org/2000/svg">
<g clip-path="url(#clip0_64_4561)">
<path d="M0.550537 13.3468L7.31321 10.3369L11.2057 12.5943L11.992 20.0002L7.19527 19.9606L7.90298 14.8121L7.07727 14.3369L3.02756 17.5052L0.550537 13.3468Z" fill="#529741"/>
<path d="M11.6387 12.2771L17.615 16.6731L19.974 12.4355L15.1773 10.4949V9.5444L19.974 7.56423L17.615 3.36621L11.6387 7.76223V12.2771Z" fill="#529741"/>
<path d="M11.2057 7.40589L11.992 0L7.19527 0.0792063L7.90298 5.2277L7.07727 5.70294L2.98824 2.53464L0.550537 6.65343L7.31321 9.66331L11.2057 7.40589Z" fill="#529741"/>
<path d="M35.9766 9.11238V16.0507H38.5581V7.2085H34.7986V9.11238H35.9766Z" fill="#529741"/>
<path d="M35.8959 5.96614C36.1326 6.21351 36.493 6.33717 36.9771 6.33717C37.4611 6.33717 37.8161 6.21351 38.0419 5.96614C38.2786 5.70785 38.3968 5.38514 38.3968 4.998C38.3968 4.59993 38.2786 4.27722 38.0419 4.02986C37.8161 3.77172 37.4611 3.64258 36.9771 3.64258C36.493 3.64258 36.1326 3.77172 35.8959 4.02986C35.6701 4.27722 35.5571 4.59993 35.5571 4.998C35.5571 5.38514 35.6701 5.70785 35.8959 5.96614Z" fill="#529741"/>
<path d="M26.9894 15.8572C27.7209 16.1907 28.6191 16.3575 29.6839 16.3575C30.6842 16.3575 31.5448 16.2014 32.2656 15.8895C32.9864 15.5776 33.5403 15.1418 33.9274 14.5826C34.3255 14.0124 34.5246 13.3508 34.5246 12.5978C34.5246 11.8664 34.3364 11.2479 33.96 10.7422C33.5941 10.226 33.0833 9.82259 32.4269 9.53224C31.7709 9.23093 31.0124 9.0427 30.1518 8.9675L29.2484 8.88681C28.7106 8.84367 28.3232 8.69853 28.0865 8.45104C27.85 8.20373 27.7315 7.91321 27.7315 7.57984C27.7315 7.32156 27.7962 7.08499 27.9251 6.86984C28.0542 6.64396 28.2478 6.46647 28.5061 6.33733C28.775 6.2083 29.1032 6.14373 29.4903 6.14373C29.899 6.14373 30.2378 6.21899 30.5068 6.36967C30.566 6.4015 30.6221 6.43556 30.6752 6.47167L30.6879 6.48064C30.7076 6.49424 30.7271 6.50842 30.7458 6.5227C30.9093 6.64756 31.0394 6.79556 31.1361 6.96664C31.2759 7.20333 31.346 7.46681 31.346 7.75733H33.9274C33.9274 6.98276 33.75 6.31041 33.395 5.74036C33.0401 5.15951 32.5293 4.71312 31.8623 4.40106C31.206 4.07835 30.4153 3.91699 29.4903 3.91699C28.6082 3.91699 27.8445 4.0677 27.1991 4.36884C26.5537 4.65934 26.0481 5.07883 25.6825 5.62734C25.3273 6.17596 25.1498 6.82687 25.1498 7.57984C25.1498 8.62321 25.4996 9.46219 26.1988 10.097C26.898 10.7316 27.8339 11.0973 29.0062 11.1941L29.8938 11.2748C30.6144 11.3393 31.1361 11.4846 31.4588 11.7104C31.7815 11.9256 31.9429 12.2213 31.9429 12.5978C31.9429 12.7709 31.9145 12.9332 31.8579 13.0848C31.8158 13.1973 31.7581 13.304 31.6849 13.4046C31.5126 13.6305 31.2598 13.808 30.9264 13.9372C30.593 14.0662 30.1789 14.1307 29.6839 14.1307C29.1354 14.1307 28.689 14.0555 28.3447 13.9048C28.0004 13.7434 27.7424 13.5338 27.5702 13.2756C27.4088 13.0173 27.3282 12.7378 27.3282 12.4365H24.7627C24.7627 13.2002 24.9508 13.8779 25.3273 14.4696C25.7038 15.0505 26.258 15.513 26.9894 15.8572Z" fill="#529741"/>
<path d="M44.3184 16.1639C43.4256 16.1639 42.7049 16.0563 42.1564 15.8412C41.6076 15.6153 41.2043 15.2442 40.9461 14.728C40.6987 14.2008 40.575 13.4909 40.575 12.598V9.09658H39.2358V7.20881H40.575V4.8208H42.9792V7.20881H45.5609V9.09658H42.9792V12.6949C42.9792 13.1144 43.0868 13.4371 43.302 13.6629C43.5277 13.878 43.845 13.9856 44.254 13.9856H45.5609V16.1639H44.3184Z" fill="#529741"/>
<path fill-rule="evenodd" clip-rule="evenodd" d="M48.6691 15.97C49.2498 16.2281 49.9168 16.3573 50.6698 16.3573C51.4119 16.3573 52.0682 16.2281 52.6383 15.97C53.2083 15.7119 53.6817 15.3515 54.0583 14.8889C54.4347 14.4263 54.6876 13.8993 54.8164 13.3076H52.4447C52.3371 13.5765 52.1327 13.8025 51.8315 13.9853C51.5303 14.1682 51.1429 14.2596 50.6698 14.2596C50.3767 14.2596 50.1145 14.2249 49.8838 14.1556C49.7081 14.1028 49.5507 14.03 49.4112 13.9369C49.0884 13.7218 48.8517 13.4205 48.7013 13.0333C48.6595 12.9231 48.6236 12.8077 48.5935 12.6875C48.5628 12.5658 48.5381 12.4391 48.5194 12.3073H54.9778V11.4359C54.9778 10.6292 54.8058 9.88694 54.4615 9.20928C54.1172 8.52071 53.6171 7.96677 52.961 7.54728C52.3156 7.117 51.5194 6.90186 50.5729 6.90186C49.8521 6.90186 49.2067 7.031 48.6366 7.28911C48.0775 7.53648 47.6095 7.87534 47.233 8.30563C46.8565 8.73586 46.566 9.2254 46.3615 9.77403C46.1679 10.3117 46.0713 10.8765 46.0713 11.4681V11.7908C46.0713 12.3611 46.1679 12.9204 46.3615 13.469C46.566 14.0068 46.8565 14.4962 47.233 14.9373C47.6201 15.3676 48.0987 15.7119 48.6691 15.97ZM48.5639 10.7118C48.5711 10.6776 48.5787 10.644 48.5869 10.6108C48.6093 10.5196 48.6351 10.4322 48.6644 10.3487C48.681 10.3011 48.6987 10.2547 48.7174 10.2096C48.8788 9.81157 49.1155 9.51043 49.4273 9.30608C49.5439 9.22968 49.6702 9.16757 49.8061 9.1198C50.0342 9.03963 50.2899 8.99946 50.5729 8.99946C51.014 8.99946 51.3796 9.10174 51.6701 9.30608C51.9713 9.49968 52.1973 9.78471 52.3477 10.1612C52.36 10.1916 52.3717 10.2225 52.3828 10.2538C52.4005 10.3037 52.4172 10.3549 52.4325 10.4074C52.4553 10.4855 52.4753 10.5663 52.4928 10.6498C52.5055 10.7114 52.5167 10.7744 52.5263 10.8389H48.5392C48.5467 10.7959 48.555 10.7535 48.5639 10.7118Z" fill="#529741"/>
<path d="M56.0432 16.0505V7.20837H58.0925V9.43534C58.1205 9.303 58.1519 9.17591 58.1873 9.05408C58.2176 8.9514 58.2502 8.85242 58.2862 8.75734C58.5119 8.15488 58.8508 7.70317 59.3028 7.40191C59.7542 7.08997 60.3085 6.93408 60.9645 6.93408H61.0776C61.7445 6.93408 62.2982 7.08997 62.7393 7.40191C63.1913 7.70317 63.5302 8.15488 63.7559 8.75734L63.7736 8.80282L63.789 8.84437C63.7993 8.815 63.8096 8.78602 63.8205 8.75734C64.057 8.15488 64.4016 7.70317 64.853 7.40191C65.305 7.08997 65.8593 6.93408 66.5153 6.93408H66.6285C67.2948 6.93408 67.8542 7.08997 68.3062 7.40191C68.7685 7.70317 69.1182 8.15488 69.3548 8.75734C69.5913 9.35974 69.7102 10.1128 69.7102 11.0163V16.0505H67.1285V10.8711C67.1285 10.387 66.9993 9.99437 66.741 9.69322C66.4936 9.39197 66.1388 9.2414 65.6765 9.2414C65.2136 9.2414 64.8479 9.39745 64.5788 9.70934C64.3102 10.0105 64.1753 10.4139 64.1753 10.9195V16.0505H61.5776V10.8711C61.5776 10.387 61.4485 9.99437 61.1902 9.69322C60.9433 9.39197 60.5936 9.2414 60.1416 9.2414C59.6685 9.2414 59.2976 9.39745 59.0285 9.70934C58.7593 10.0105 58.625 10.4139 58.625 10.9195V16.0505H56.0432Z" fill="#529741"/>
<path fill-rule="evenodd" clip-rule="evenodd" d="M76.6062 14.3472V16.0509H78.6553V10.6294C78.6553 9.81182 78.4942 9.14496 78.1713 8.62856C77.8485 8.10148 77.3753 7.70891 76.7513 7.45073C76.1382 7.19262 75.3799 7.06348 74.4765 7.06348C74.2805 7.06348 74.0759 7.06553 73.8627 7.06982C73.737 7.07245 73.6079 7.07565 73.4759 7.07959C73.121 7.09033 72.7765 7.10645 72.4433 7.12805L72.1885 7.14519C72.0576 7.15428 71.9347 7.16325 71.8193 7.17233C71.7325 7.17908 71.6502 7.18582 71.5719 7.19262V9.37091C71.9056 9.34931 72.2765 9.32776 72.6856 9.30633C72.7999 9.30033 72.913 9.29479 73.0256 9.28959C73.1879 9.28205 73.3485 9.27553 73.5067 9.26982C73.6319 9.26531 73.7565 9.26125 73.8793 9.25788C74.2667 9.24708 74.5787 9.24176 74.8153 9.24176C75.2885 9.24176 75.6325 9.35468 75.8479 9.58056C76.0627 9.8065 76.1707 10.1453 76.1707 10.5972V10.6294H74.573C73.7879 10.6294 73.0942 10.7316 72.4913 10.936C71.889 11.1296 71.4216 11.4362 71.0879 11.8556C70.7542 12.2645 70.5879 12.7916 70.5879 13.437C70.5879 14.0286 70.7222 14.5396 70.9913 14.9699C71.2599 15.3894 71.6307 15.7121 72.1045 15.9379C72.5885 16.1638 73.1479 16.2768 73.7822 16.2768C74.3959 16.2768 74.9119 16.1638 75.3313 15.9379C75.7616 15.7121 76.0953 15.3894 76.3319 14.9699C76.3736 14.8992 76.4125 14.8258 76.4485 14.7497C76.4999 14.6419 76.5456 14.5286 76.5856 14.4098L76.6062 14.3472ZM76.1707 12.7755V12.0655H74.557C74.105 12.0655 73.7559 12.1784 73.5085 12.4043C73.2713 12.6194 73.153 12.9152 73.153 13.2918C73.153 13.469 73.1827 13.63 73.2416 13.7752C73.301 13.9207 73.3896 14.0499 73.5085 14.1631C73.7559 14.3783 74.105 14.4858 74.557 14.4858C74.6428 14.4858 74.7262 14.4815 74.8062 14.4731C74.8719 14.4662 74.9353 14.4564 74.997 14.4439C75.1159 14.4198 75.2273 14.3854 75.3313 14.3406C75.5685 14.233 75.7616 14.0555 75.9125 13.808C76.0627 13.5607 76.149 13.2164 76.1707 12.7755Z" fill="#529741"/>
<path d="M80.2004 16.0508V7.20862H82.2496V10.1271C82.3479 9.29399 82.5953 8.62222 82.9919 8.11216C83.5296 7.4345 84.3039 7.0957 85.3153 7.0957H85.6542V9.32233H85.0084C84.2987 9.32233 83.7502 9.51587 83.3627 9.90319C82.9753 10.2797 82.7822 10.8283 82.7822 11.549V16.0508H80.2004Z" fill="#529741"/>
<path d="M88.9279 11.9201H89.7833L92.5748 16.0508H95.4788L91.9393 10.9778L94.8496 7.20862H92.1388L88.9279 11.4129V4.27197H86.3462V16.0508H88.9279V11.9201Z" fill="#529741"/>
</g>
<defs>
<clipPath id="clip0_64_4561">
<rect width="95.4286" height="20" fill="white" transform="translate(0.285645)"/>
</clipPath>
</defs>
</svg>
