<svg width="97" height="36" viewBox="0 0 97 36" fill="none" xmlns="http://www.w3.org/2000/svg">
<g clip-path="url(#clip0_50_464)">
<path d="M71.1189 33.9381L79.1249 25.0709L71.1189 16.2026H79.5661L83.5313 20.5103L87.3496 16.2026H95.5021L87.5341 25.0343L95.6114 33.9381H87.1296L83.2003 29.595L79.3081 33.9381H71.1189Z" fill="#FF6600"/>
<path d="M71.1189 12.227H62.0515V16.2026H71.1189V22.1942H62.0515V27.6938H71.1189V33.9381H55.387V6H71.1189V12.227Z" fill="#FF6600"/>
<path d="M48.7507 6V17.4336H48.6776C47.2084 15.769 45.3727 15.1905 43.2428 15.1905C38.8798 15.1905 35.5932 18.1141 34.4396 21.9795C33.124 17.7204 29.731 15.1107 24.6998 15.1107C20.6139 15.1107 17.3875 16.9185 15.7037 19.8643V16.203H7.25822V12.2278H16.4746V6H-0.270264V33.9385H7.25822V22.1942H14.7621C14.5384 23.057 14.419 23.9807 14.419 24.9553C14.419 30.7832 18.9356 34.8724 24.6998 34.8724C29.5469 34.8724 32.7412 32.6293 34.4308 28.5397H27.9792C27.1064 29.7682 26.4445 30.1332 24.6998 30.1332C22.6767 30.1332 20.9324 28.3932 20.9324 26.3307H34.0694C34.6391 30.9597 38.2971 34.9518 43.3171 34.9518C45.4825 34.9518 47.4651 33.9018 48.6776 32.129H48.7507V33.9376H55.3872V6H48.7507ZM21.1419 22.2778C21.5606 20.5033 22.9567 19.3435 24.6998 19.3435C26.6185 19.3435 27.9437 20.4675 28.2922 22.2778C28.4392 22.2778 21.1419 22.2778 21.1419 22.2778ZM44.7233 29.6843C42.2769 29.6843 40.7568 27.4375 40.7568 25.0915C40.7568 22.5839 42.0791 20.1725 44.7233 20.1725C47.4651 20.1725 48.5574 22.5839 48.5574 25.0915C48.557 27.4696 47.3996 29.6843 44.7233 29.6843Z" fill="#652C8F"/>
</g>
<defs>
<clipPath id="clip0_50_464">
<rect width="96" height="36" fill="white" transform="translate(0.329834)"/>
</clipPath>
</defs>
</svg>
