<svg width="109" height="36" viewBox="0 0 109 36" fill="none" xmlns="http://www.w3.org/2000/svg">
<g clip-path="url(#clip0_50_448)">
<path d="M46.6738 18.4617C46.6738 23.4587 42.7071 27.1409 37.8392 27.1409C32.9713 27.1409 29.0046 23.4587 29.0046 18.4617C29.0046 13.4296 32.9713 9.78261 37.8392 9.78261C42.7071 9.78261 46.6738 13.4296 46.6738 18.4617ZM42.8064 18.4617C42.8064 15.3391 40.5074 13.2026 37.8392 13.2026C35.171 13.2026 32.872 15.3391 32.872 18.4617C32.872 21.553 35.171 23.7209 37.8392 23.7209C40.5074 23.7209 42.8064 21.5491 42.8064 18.4617Z" fill="#EA4335"/>
<path d="M65.7326 18.4617C65.7326 23.4587 61.766 27.1409 56.898 27.1409C52.0301 27.1409 48.0635 23.4587 48.0635 18.4617C48.0635 13.4335 52.0301 9.78261 56.898 9.78261C61.766 9.78261 65.7326 13.4296 65.7326 18.4617ZM61.8652 18.4617C61.8652 15.3391 59.5663 13.2026 56.898 13.2026C54.2298 13.2026 51.9308 15.3391 51.9308 18.4617C51.9308 21.553 54.2298 23.7209 56.898 23.7209C59.5663 23.7209 61.8652 21.5491 61.8652 18.4617Z" fill="#FBBC05"/>
<path d="M83.9975 10.307V25.8887C83.9975 32.2983 80.1619 34.9161 75.6274 34.9161C71.3591 34.9161 68.7901 32.1026 67.8213 29.8017L71.1883 28.4204C71.7879 29.833 73.257 31.5 75.6235 31.5C78.526 31.5 80.3247 29.7352 80.3247 26.413V25.1648H80.1897C79.3241 26.2174 77.6564 27.137 75.552 27.137C71.1486 27.137 67.1145 23.357 67.1145 18.493C67.1145 13.5939 71.1486 9.78261 75.552 9.78261C77.6525 9.78261 79.3201 10.7022 80.1897 11.7235H80.3247V10.3109H83.9975V10.307ZM80.5986 18.493C80.5986 15.437 78.53 13.2026 75.8975 13.2026C73.2292 13.2026 70.9938 15.437 70.9938 18.493C70.9938 21.5178 73.2292 23.7209 75.8975 23.7209C78.53 23.7209 80.5986 21.5178 80.5986 18.493Z" fill="#4285F4"/>
<path d="M90.0526 1.17392V26.6087H86.2805V1.17392H90.0526Z" fill="#34A853"/>
<path d="M104.752 21.3183L107.754 23.2904C106.785 24.7031 104.45 27.137 100.416 27.137C95.4131 27.137 91.6768 23.3257 91.6768 18.4578C91.6768 13.2965 95.4448 9.7787 99.9832 9.7787C104.553 9.7787 106.789 13.363 107.519 15.3L107.92 16.2861L96.1476 21.0913C97.049 22.8326 98.4506 23.7209 100.416 23.7209C102.385 23.7209 103.751 22.7661 104.752 21.3183ZM95.5123 18.1957L103.382 14.9752C102.949 13.8913 101.647 13.1361 100.114 13.1361C98.1488 13.1361 95.4131 14.8461 95.5123 18.1957Z" fill="#EA4335"/>
<path d="M14.7267 16.2039V12.5217H27.3174C27.4405 13.1635 27.504 13.9226 27.504 14.7443C27.504 17.507 26.7377 20.923 24.268 23.357C21.8658 25.8222 18.7965 27.137 14.7307 27.137C7.19448 27.137 0.857422 21.0874 0.857422 13.6604C0.857422 6.23348 7.19448 0.183914 14.7307 0.183914C18.8998 0.183914 21.8698 1.79609 24.1012 3.89739L21.4648 6.49565C19.8646 5.01652 17.6967 3.86609 14.7267 3.86609C9.22345 3.86609 4.91933 8.23696 4.91933 13.6604C4.91933 19.0839 9.22345 23.4548 14.7267 23.4548C18.2962 23.4548 20.3292 22.0422 21.6315 20.7587C22.6877 19.7178 23.3826 18.2309 23.6565 16.2L14.7267 16.2039Z" fill="#4285F4"/>
</g>
<defs>
<clipPath id="clip0_50_448">
<rect width="108" height="36" fill="white" transform="translate(0.714355)"/>
</clipPath>
</defs>
</svg>
