<svg width="127" height="36" viewBox="0 0 127 36" fill="none" xmlns="http://www.w3.org/2000/svg">
<g clip-path="url(#clip0_50_437)">
<path d="M14.3595 5.95914V16.1138H5.10705V5.95914H0.714355V30.1992H5.10705V20.3743H14.3595V30.1992H18.7522V5.95914H14.3595Z" fill="#33475B"/>
<path d="M32.8105 22.3636C32.8105 23.3351 32.4276 24.2667 31.7461 24.9537C31.0646 25.6406 30.1403 26.0265 29.1765 26.0265C28.2127 26.0265 27.2883 25.6406 26.6068 24.9537C25.9253 24.2667 25.5424 23.3351 25.5424 22.3636V11.9812H21.3757V22.3636C21.3757 24.4469 22.1968 26.4449 23.6583 27.918C25.1198 29.3911 27.1021 30.2187 29.1689 30.2187C31.2358 30.2187 33.2181 29.3911 34.6796 27.918C36.1411 26.4449 36.9622 24.4469 36.9622 22.3636V11.9812H32.8105V22.3636Z" fill="#33475B"/>
<path d="M63.6822 13.0507C63.6822 10.9226 65.079 10.2479 66.6092 10.2479C67.8424 10.2479 69.4717 11.1937 70.537 12.3413L73.2661 9.10032C71.9037 7.24338 69.1402 5.95914 66.8782 5.95914C62.3586 5.95914 59.0893 8.62741 59.0893 13.0507C59.0893 21.2572 69.0412 18.654 69.0412 23.2465C69.0412 24.6631 67.6767 25.9148 66.1142 25.9148C63.6499 25.9148 62.8514 24.7 61.7193 23.4157L58.6912 26.5894C60.6282 28.9866 63.0171 30.2035 65.8796 30.2035C70.1733 30.2035 73.6276 27.5027 73.6276 23.2812C73.6276 14.17 63.6757 17.001 63.6757 13.0507" fill="#33475B"/>
<path d="M125.249 26.327C122.786 26.327 122.087 25.2531 122.087 23.6088V16.3307H125.914V12.6428H122.087V7.77704L117.862 9.68822V24.5134C117.862 28.3054 120.458 30.2166 124.017 30.2166C124.576 30.2268 125.134 30.1818 125.683 30.0821L126.714 26.2575C126.249 26.2901 125.716 26.3226 125.249 26.3226" fill="#33475B"/>
<path d="M48.6703 12.1027C46.6063 12.1027 45.1665 12.7058 43.774 14.0833V6.10449H39.6008V20.8928C39.6008 26.4289 43.5717 30.2209 48.0333 30.2209C52.9834 30.2209 57.3373 26.3617 57.3373 21.164C57.3373 16.0313 53.3299 12.1049 48.6703 12.1049V12.1027ZM48.6445 25.9886C47.708 25.9886 46.7926 25.7086 46.0139 25.1842C45.2353 24.6598 44.6284 23.9145 44.27 23.0424C43.9116 22.1703 43.8179 21.2107 44.0006 20.285C44.1833 19.3592 44.6342 18.5088 45.2964 17.8413C45.9586 17.1739 46.8023 16.7194 47.7208 16.5352C48.6392 16.3511 49.5913 16.4456 50.4565 16.8068C51.3216 17.168 52.0611 17.7797 52.5814 18.5646C53.1017 19.3494 53.3794 20.2721 53.3794 21.216C53.3794 22.4818 52.8805 23.6957 51.9926 24.5907C51.1046 25.4857 49.9003 25.9886 48.6445 25.9886Z" fill="#33475B"/>
<path d="M93.9831 20.9427C93.9831 15.7363 89.6377 11.8857 84.679 11.8857C80.2174 11.8857 76.2466 15.6777 76.2466 21.2138V36.0108H80.4197V28.0212C81.8101 29.3965 83.2521 30.0018 85.3139 30.0018C89.9735 30.0018 93.9809 26.0775 93.9809 20.9427H93.9831ZM90.0316 20.8906C90.0316 21.8345 89.7539 22.7573 89.2336 23.5421C88.7133 24.3269 87.9738 24.9386 87.1087 25.2999C86.2435 25.6611 85.2914 25.7556 84.373 25.5714C83.4545 25.3873 82.6108 24.9327 81.9486 24.2653C81.2864 23.5978 80.8355 22.7475 80.6528 21.8217C80.4701 20.8959 80.5638 19.9363 80.9222 19.0643C81.2806 18.1922 81.8875 17.4468 82.6661 16.9224C83.4448 16.398 84.3602 16.1181 85.2967 16.1181C86.5525 16.1181 87.7568 16.6209 88.6448 17.5159C89.5327 18.411 90.0316 19.6249 90.0316 20.8906Z" fill="#33475B"/>
<path d="M107.465 11.6818V7.45598C108.019 7.19504 108.488 6.78084 108.818 6.26161C109.147 5.74237 109.324 5.13946 109.326 4.52305V4.42543C109.326 3.56242 108.986 2.73475 108.381 2.12451C107.775 1.51427 106.954 1.17144 106.098 1.17144H106.001C105.145 1.17144 104.324 1.51427 103.718 2.12451C103.113 2.73475 102.773 3.56242 102.773 4.42543V4.52305C102.776 5.13946 102.952 5.74237 103.282 6.26161C103.611 6.78084 104.081 7.19504 104.635 7.45598V11.6818C103.042 11.9274 101.542 12.5927 100.287 13.6104L88.7899 4.58379C88.8713 4.28613 88.9147 3.97923 88.9191 3.6705C88.9203 2.94531 88.7082 2.23603 88.3095 1.63237C87.9108 1.02872 87.3434 0.557801 86.6792 0.279192C86.0149 0.000584049 85.2836 -0.0732001 84.5777 0.0671725C83.8719 0.207545 83.2232 0.555768 82.7137 1.0678C82.2042 1.57982 81.8568 2.23265 81.7154 2.94371C81.5741 3.65477 81.6451 4.39211 81.9196 5.06247C82.194 5.73282 82.6595 6.30608 83.2572 6.70974C83.855 7.11339 84.558 7.3293 85.2775 7.33016C85.9066 7.32733 86.524 7.15828 87.0681 6.83989L98.391 15.719C97.3736 17.2678 96.8428 19.0897 96.8677 20.9471C96.8927 22.8045 97.4723 24.6112 98.5309 26.1317L95.0873 29.6027C94.8089 29.513 94.5187 29.4655 94.2264 29.4616C93.6358 29.4621 93.0585 29.639 92.5676 29.97C92.0767 30.301 91.6941 30.7713 91.4683 31.3214C91.2425 31.8715 91.1835 32.4767 91.2988 33.0606C91.4142 33.6445 91.6986 34.1808 92.1163 34.6018C92.5339 35.0228 93.066 35.3095 93.6453 35.4257C94.2246 35.542 94.825 35.4825 95.3708 35.2549C95.9166 35.0273 96.3831 34.6417 96.7115 34.1469C97.04 33.652 97.2155 33.0702 97.2159 32.4748C97.2122 32.1802 97.165 31.8878 97.076 31.6071L100.483 28.1731C101.594 29.0348 102.886 29.6287 104.26 29.9095C105.633 30.1903 107.053 30.1504 108.409 29.7929C109.765 29.4354 111.022 28.7698 112.084 27.8471C113.145 26.9244 113.983 25.769 114.534 24.4694C115.084 23.1698 115.332 21.7606 115.258 20.3496C115.184 18.9386 114.791 17.5633 114.109 16.329C113.427 15.0947 112.473 14.0342 111.322 13.2287C110.17 12.4232 108.851 11.8941 107.465 11.6818ZM106.053 25.5785C105.121 25.5777 104.21 25.2984 103.436 24.7759C102.661 24.2535 102.058 23.5113 101.702 22.6433C101.345 21.7752 101.253 20.8202 101.435 19.899C101.617 18.9778 102.066 18.1317 102.725 17.4676C103.384 16.8035 104.224 16.3513 105.138 16.1681C106.052 15.9849 106.999 16.0789 107.86 16.4383C108.722 16.7977 109.458 17.4063 109.976 18.1872C110.493 18.9681 110.77 19.8862 110.771 20.8255C110.771 22.0855 110.274 23.2939 109.39 24.1849C108.506 25.0758 107.307 25.5764 106.057 25.5764" fill="#FF7A59"/>
</g>
<defs>
<clipPath id="clip0_50_437">
<rect width="126" height="36" fill="white" transform="translate(0.714355)"/>
</clipPath>
</defs>
</svg>
