<svg width="170" height="36" viewBox="0 0 170 36" fill="none" xmlns="http://www.w3.org/2000/svg">
<g clip-path="url(#clip0_50_455)">
<path d="M60.3408 20.7349L59.334 23.5814H59.25C59.0822 22.9395 58.7746 21.9628 58.2712 20.7907L52.8735 7.25581H47.5876V28.8279H51.0836V15.5163C51.0836 14.6791 51.0836 13.7302 51.0556 12.5581C51.0276 11.9721 50.9717 11.5256 50.9437 11.1907H51.0276C51.1954 12.0279 51.3912 12.6419 51.531 13.0326L58.0195 28.7721H60.4806L66.9131 12.893C67.0529 12.5302 67.1928 11.8046 67.3326 11.1907H67.4165C67.3326 12.7814 67.2767 14.2046 67.2487 15.0698V28.7442H70.9684V7.2H65.8783L60.3408 20.7349ZM74.4923 13.2837H78.128V28.7442H74.4923V13.2837ZM76.3381 6.75348C75.7228 6.75348 75.2194 6.97674 74.7999 7.36744C74.3804 7.75814 74.1567 8.26046 74.1567 8.87441C74.1567 9.46046 74.3804 9.96279 74.7999 10.3535C75.2194 10.7442 75.7228 10.9395 76.3381 10.9395C76.9534 10.9395 77.4848 10.7163 77.8763 10.3535C78.2958 9.96279 78.5196 9.46046 78.5196 8.87441C78.5196 8.28837 78.2958 7.78604 77.8763 7.36744C77.5128 6.97674 76.9814 6.75348 76.3381 6.75348ZM91.021 13.1442C90.3498 13.0046 89.6506 12.9209 88.9794 12.9209C87.3293 12.9209 85.8191 13.2837 84.5605 14.0093C83.302 14.7349 82.2952 15.7395 81.6519 16.9953C80.9807 18.2791 80.6451 19.7581 80.6451 21.4605C80.6451 22.9395 80.9807 24.2512 81.624 25.4512C82.2672 26.6233 83.1622 27.5721 84.3648 28.2139C85.5114 28.8558 86.8539 29.1907 88.3641 29.1907C90.0981 29.1907 91.5804 28.8279 92.755 28.1581L92.783 28.1302V24.7814L92.6431 24.893C92.1117 25.2837 91.4965 25.6186 90.8812 25.8139C90.2379 26.0372 89.6506 26.1488 89.1472 26.1488C87.6929 26.1488 86.5462 25.7302 85.7352 24.8093C84.8961 23.9163 84.4766 22.6884 84.4766 21.1535C84.4766 19.5628 84.8961 18.307 85.7631 17.386C86.6301 16.4651 87.7768 15.9907 89.1752 15.9907C90.3498 15.9907 91.5524 16.3814 92.6431 17.1628L92.783 17.2744V13.7302L92.755 13.7023C92.2795 13.507 91.7482 13.2837 91.021 13.1442ZM103.019 13.0326C102.124 13.0326 101.285 13.3116 100.558 13.8977C99.9426 14.4 99.5231 15.1256 99.1595 15.9907H99.1315V13.2837H95.4958V28.7442H99.1315V20.8465C99.1315 19.507 99.4112 18.3907 100.027 17.5814C100.642 16.7442 101.425 16.3256 102.376 16.3256C102.711 16.3256 103.047 16.4093 103.466 16.4651C103.858 16.5767 104.138 16.6884 104.333 16.8279L104.473 16.9395V13.3116L104.389 13.2837C104.138 13.1163 103.634 13.0326 103.019 13.0326ZM112.919 12.9488C110.374 12.9488 108.333 13.7023 106.906 15.1814C105.452 16.6605 104.753 18.6977 104.753 21.2651C104.753 23.6651 105.48 25.6186 106.879 27.0419C108.277 28.4372 110.179 29.1628 112.556 29.1628C115.045 29.1628 117.031 28.4093 118.457 26.9023C119.911 25.3953 120.611 23.386 120.611 20.9023C120.611 18.4465 119.939 16.493 118.569 15.0698C117.254 13.6465 115.325 12.9488 112.919 12.9488ZM115.828 24.8372C115.157 25.7023 114.094 26.1209 112.78 26.1209C111.465 26.1209 110.402 25.7023 109.647 24.7814C108.892 23.9163 108.529 22.6605 108.529 21.0698C108.529 19.4233 108.92 18.1674 109.647 17.2744C110.402 16.3814 111.437 15.9349 112.752 15.9349C114.038 15.9349 115.045 16.3535 115.772 17.2186C116.499 18.0837 116.891 19.3395 116.891 20.986C116.835 22.6605 116.527 23.9721 115.828 24.8372ZM128.721 19.7023C127.574 19.2279 126.847 18.8651 126.512 18.5581C126.232 18.2791 126.092 17.8884 126.092 17.386C126.092 16.9674 126.26 16.5488 126.679 16.2698C127.099 15.9907 127.574 15.8512 128.274 15.8512C128.889 15.8512 129.532 15.9628 130.147 16.1302C130.763 16.2977 131.322 16.5488 131.77 16.8837L131.909 16.9953V13.5907L131.825 13.5628C131.406 13.3953 130.847 13.2279 130.175 13.0884C129.504 12.9767 128.889 12.9209 128.385 12.9209C126.651 12.9209 125.225 13.3395 124.106 14.2605C122.988 15.1256 122.456 16.2977 122.456 17.6651C122.456 18.3907 122.568 19.0326 122.82 19.5628C123.072 20.093 123.435 20.5953 123.939 21.014C124.442 21.4046 125.169 21.8512 126.176 22.2698C127.015 22.6326 127.658 22.9116 128.05 23.1349C128.441 23.3581 128.693 23.6093 128.889 23.8046C129.029 24.0279 129.113 24.307 129.113 24.6698C129.113 25.7023 128.33 26.2046 126.735 26.2046C126.12 26.2046 125.477 26.093 124.722 25.8419C123.967 25.5907 123.267 25.2279 122.68 24.8093L122.54 24.6977V28.2419L122.624 28.2698C123.156 28.5209 123.799 28.6884 124.582 28.8837C125.365 29.0233 126.064 29.1349 126.679 29.1349C128.553 29.1349 130.091 28.7163 131.182 27.7953C132.301 26.9023 132.888 25.7581 132.888 24.2791C132.888 23.2465 132.609 22.3256 131.993 21.6279C131.182 20.9581 130.175 20.2605 128.721 19.7023ZM142.481 12.9488C139.936 12.9488 137.894 13.7023 136.468 15.1814C135.042 16.6605 134.315 18.6977 134.315 21.2651C134.315 23.6651 135.042 25.6186 136.44 27.0419C137.838 28.4372 139.74 29.1628 142.117 29.1628C144.607 29.1628 146.592 28.4093 148.019 26.9023C149.473 25.3953 150.172 23.386 150.172 20.9023C150.172 18.4465 149.501 16.493 148.13 15.0698C146.816 13.6465 144.886 12.9488 142.481 12.9488ZM145.362 24.8372C144.69 25.7023 143.628 26.1209 142.313 26.1209C140.971 26.1209 139.936 25.7023 139.181 24.7814C138.426 23.9163 138.062 22.6605 138.062 21.0698C138.062 19.4233 138.454 18.1674 139.181 17.2744C139.936 16.3814 140.971 15.9349 142.285 15.9349C143.544 15.9349 144.579 16.3535 145.306 17.2186C146.033 18.0837 146.424 19.3395 146.424 20.986C146.424 22.6605 146.061 23.9721 145.362 24.8372ZM169.609 16.2698V13.2837H165.946V8.70697L165.834 8.73488L162.366 9.76744L162.282 9.79534V13.2837H156.8V11.3302C156.8 10.4372 157.024 9.73953 157.416 9.29302C157.807 8.84651 158.394 8.62325 159.122 8.62325C159.625 8.62325 160.156 8.73488 160.744 8.98604L160.884 9.06976V5.91628L160.8 5.88837C160.296 5.72093 159.625 5.6093 158.758 5.6093C157.667 5.6093 156.716 5.86046 155.849 6.27907C154.982 6.75348 154.339 7.39535 153.864 8.26046C153.388 9.09767 153.137 10.0465 153.137 11.1349V13.2837H150.592V16.2419H153.137V28.7442H156.8V16.2698H162.282V24.2233C162.282 27.4884 163.82 29.1349 166.897 29.1349C167.4 29.1349 167.931 29.0512 168.435 28.9674C168.966 28.8558 169.358 28.7163 169.581 28.6046L169.609 28.5767V25.5907L169.47 25.7023C169.246 25.8419 169.05 25.9535 168.714 26.0372C168.435 26.1209 168.183 26.1488 167.987 26.1488C167.26 26.1488 166.757 25.9814 166.393 25.5628C166.058 25.1721 165.89 24.5302 165.89 23.5814V16.2698H169.609Z" fill="#737373"/>
<path d="M0.714355 0H17.8584V17.107H0.714355V0Z" fill="#F25022"/>
<path d="M19.6482 0H36.7922V17.107H19.6482V0Z" fill="#7FBA00"/>
<path d="M0.714355 18.893H17.8584V36H0.714355V18.893Z" fill="#00A4EF"/>
<path d="M19.6482 18.893H36.7922V36H19.6482V18.893Z" fill="#FFB900"/>
</g>
<defs>
<clipPath id="clip0_50_455">
<rect width="168.923" height="36" fill="white" transform="translate(0.714355)"/>
</clipPath>
</defs>
</svg>
