<svg width="50" height="50" viewBox="0 0 50 50" fill="none" xmlns="http://www.w3.org/2000/svg">
<path d="M22.6869 9.33761C21.6582 10.3635 21.2351 11.6019 21.3227 13.0971C18.6597 11.3122 15.8425 10.8227 12.839 11.7448C10.6879 12.4051 8.97705 13.7194 7.69056 15.603C5.16074 19.3068 5.4284 24.4627 8.31839 27.8301C11.3428 31.3542 16.2113 32.3295 20.1854 30.1867C22.5537 28.9091 24.1757 26.9572 24.9947 24.3451C25.8075 21.757 25.567 19.2245 24.4606 16.8654C25.2019 16.8021 25.9272 16.7566 26.6488 16.6706C26.8856 16.6428 27.1162 16.5213 27.3383 16.4163C27.9648 16.1203 28.4644 16.329 28.6654 17.0109C29.9051 21.2029 29.4006 25.1623 27.1384 28.8812C27.0731 28.9875 27.0065 29.0938 26.9448 29.2025C26.93 29.2278 26.9324 29.2633 27.0447 29.1735C28.3818 30.6294 29.7188 32.0854 31.0497 33.5325C32.018 32.7748 32.4768 32.8001 33.302 33.6211C35.6332 35.9372 37.9645 38.2559 40.2945 40.5733C41.0604 41.336 41.0789 41.99 40.3475 42.7718C39.5482 43.6256 38.7452 44.4744 37.9349 45.3169C37.2737 46.0037 36.6052 46.0037 35.9256 45.327C33.5734 42.9868 31.2224 40.6454 28.8727 38.3027C28.0586 37.4918 28.0117 37.0238 28.5976 36.1636C27.2778 34.7342 25.9691 33.3162 24.6358 31.8729C20.9428 34.9303 16.8416 35.9536 12.3098 34.8101C9.1374 34.0094 6.58415 32.1777 4.66736 29.4568C0.785681 23.9504 1.3247 16.4454 5.96496 11.5538C10.5904 6.67867 17.6593 6.17395 22.6869 9.33761Z" fill="#70C05C"/>
<path d="M33.2799 15.5992C34.226 14.6998 35.2608 14.4316 36.4524 14.9085C36.551 14.9477 36.7496 14.8731 36.8323 14.7846C38.754 12.7416 40.6708 10.6911 42.5715 8.62799C42.6665 8.52427 42.6825 8.25483 42.6258 8.10683C42.0276 6.52942 42.7713 4.82679 44.3033 4.31068C45.855 3.78826 47.4585 4.73318 47.8445 6.39913C48.3182 8.43825 46.3829 10.2939 44.402 9.69815C44.2268 9.64502 44.0578 9.57292 43.8506 9.49702C43.541 9.82844 43.224 10.17 42.9058 10.5103C41.2678 12.2648 39.6334 14.023 37.9868 15.77C37.7882 15.9799 37.745 16.1292 37.8647 16.4138C38.3223 17.4928 38.0756 18.687 37.2689 19.5029C36.4622 20.3188 35.2806 20.5452 34.2432 20.0797C33.2022 19.6142 32.5337 18.539 32.5941 17.3651C32.6089 17.0703 32.5448 16.9249 32.2771 16.7933C30.8241 16.0773 29.381 15.3424 27.9403 14.6024C27.6911 14.4734 27.5234 14.4772 27.2927 14.6732C26.3738 15.4461 25.3537 15.5688 24.2831 15.0375C24.0561 14.925 23.9353 14.968 23.765 15.121C21.995 16.7111 20.2226 18.2986 18.4365 19.8684C18.196 20.0797 18.2675 20.2467 18.3354 20.4819C18.7733 22.0113 17.9197 23.6026 16.4494 24.02C14.9792 24.4375 13.462 23.5722 13.0648 22.0505C12.775 20.9348 13.0513 19.9469 13.906 19.1841C14.7423 18.4365 15.7069 18.286 16.7467 18.6933C16.9021 18.754 17.0477 18.8413 17.2216 18.9286C18.8547 17.4701 20.489 16.0116 22.1233 14.5518C22.1579 14.5202 22.1899 14.4848 22.2269 14.4582C22.7388 14.0774 23.0398 13.7296 22.8387 12.9263C22.5612 11.8233 23.0558 10.8429 23.9969 10.1991C24.9171 9.56912 25.9125 9.52991 26.8746 10.089C27.8577 10.6595 28.2992 11.5665 28.2672 12.7277C28.2635 12.8719 28.3597 13.0971 28.4731 13.1565C30.0618 13.9788 31.6604 14.7808 33.2799 15.5992Z" fill="#70C05C"/>
</svg>
