<svg width="51" height="50" viewBox="0 0 51 50" fill="none" xmlns="http://www.w3.org/2000/svg">
<path d="M23.2283 45.8322C22.8763 45.5691 22.4855 45.3452 22.1778 45.0375C18.5725 41.4314 14.9792 37.8134 11.3826 34.1975C10.5393 33.3506 10.5393 32.5493 11.3815 31.6992C11.8199 31.2578 12.2561 30.8142 12.6988 30.3761C13.4125 29.6705 14.2342 29.6314 14.9511 30.325C16.2619 31.5937 17.5522 32.8853 18.8414 34.1768C21.1444 36.4838 23.4421 38.7961 25.7398 41.1096C25.9493 41.3205 26.1468 41.5434 26.3336 41.7739C26.826 42.3816 26.812 43.198 26.2721 43.7775C25.7463 44.3406 25.1999 44.8864 24.6385 45.4148C24.4484 45.5941 24.1861 45.6963 23.9572 45.8333C23.7142 45.8322 23.4713 45.8322 23.2283 45.8322Z" fill="#70C05C"/>
<path d="M30.4117 26.7461C30.6428 28.1659 31.3597 29.215 32.7483 29.6368C33.314 29.8086 33.5667 30.026 33.7384 30.6294C34.2631 32.4732 36.279 33.4212 38.0768 32.7689C38.2366 32.7113 38.3931 32.6461 38.5508 32.5841C37.3231 33.8365 36.1138 35.0911 34.8775 36.3185C34.4964 36.6969 33.991 36.8773 33.4436 36.8915C32.5669 36.9143 31.6891 36.9219 30.8145 36.9686C30.6115 36.9795 30.3696 37.073 30.2249 37.2122C29.4832 37.9232 28.7662 38.6613 28.0406 39.3897C27.9467 39.4832 27.8474 39.5713 27.7707 39.6441C24.1277 35.9826 20.503 32.3406 16.8417 28.6606C17.5543 27.9518 18.2982 27.2299 19.0173 26.4819C19.1577 26.3362 19.2613 26.0938 19.2689 25.8916C19.3142 24.6587 19.3391 23.4248 19.3402 22.1909C19.3402 21.9909 19.2387 21.7408 19.0994 21.5984C17.7098 20.1764 16.3007 18.7718 14.8992 17.3607C14.0106 16.4659 14.1801 15.4973 15.3473 15.0385C17.3923 14.2351 19.2721 14.5558 20.8993 16.0441C21.7458 16.8182 22.5178 17.6759 23.3524 18.5261C23.495 18.3891 23.6105 18.2826 23.7206 18.1717C26.9836 14.8917 30.2454 11.6096 33.5106 8.33181C34.4586 7.37946 35.6668 7.16964 36.7163 7.76105C38.2031 8.59925 38.5216 10.5866 37.3436 11.8281C36.4874 12.7315 35.5934 13.598 34.7155 14.4808C32.5971 16.6094 30.469 18.7283 28.3613 20.8689C26.7676 22.4877 27.057 25.061 28.9433 26.2221C29.1592 26.3547 29.3979 26.4591 29.6365 26.5439C29.8762 26.6287 30.1299 26.6733 30.4117 26.7461Z" fill="#70C05C"/>
<path d="M16.33 11.9987C16.0439 11.8422 15.7114 11.7367 15.4814 11.5204C14.7439 10.8268 14.0378 10.1005 13.3338 9.37215C12.8144 8.83509 12.8242 8.07843 13.3306 7.59464C13.8218 7.1239 14.555 7.13804 15.0711 7.64683C15.801 8.36761 16.5255 9.09492 17.2413 9.82984C17.6171 10.2158 17.6959 10.6843 17.4886 11.1779C17.2845 11.6617 16.9001 11.9009 16.33 11.9987Z" fill="#70C05C"/>
<path d="M25.5389 11.9781C25.0022 11.9042 24.6222 11.6835 24.4041 11.228C24.1784 10.7573 24.2216 10.2789 24.5747 9.90493C25.3337 9.10044 26.1122 8.31007 26.9177 7.55232C27.4014 7.0968 28.1507 7.17182 28.5913 7.64582C29.0156 8.10351 29.0415 8.83952 28.5988 9.30482C27.8538 10.0865 27.0926 10.854 26.3087 11.5966C26.109 11.7835 25.798 11.8531 25.5389 11.9781Z" fill="#70C05C"/>
<path d="M19.7161 6.9185C19.7161 6.43145 19.7064 5.94332 19.7183 5.45627C19.7388 4.66917 20.2463 4.15385 20.9697 4.1669C21.6586 4.17994 22.1617 4.72244 22.1661 5.4791C22.1725 6.46733 22.1736 7.45555 22.165 8.44378C22.1585 9.18522 21.6316 9.74076 20.947 9.74837C20.2646 9.75707 19.7464 9.21566 19.7151 8.46117C19.714 8.43399 19.714 8.40682 19.714 8.37964C19.7161 7.89368 19.7161 7.40663 19.7161 6.9185Z" fill="#70C05C"/>
<path d="M39.9167 27.705C39.8379 27.8441 39.7472 28.1083 39.5723 28.2931C38.9515 28.9508 38.3079 29.5879 37.6633 30.2217C37.2358 30.6414 36.6419 30.6544 36.2521 30.275C35.8364 29.8717 35.8386 29.2879 36.2802 28.8334C36.9302 28.1659 37.5888 27.506 38.255 26.8548C38.5638 26.5526 38.9407 26.4906 39.3358 26.6732C39.7127 26.8494 39.8876 27.1679 39.9167 27.705Z" fill="#70C05C"/>
<path d="M33.7451 21.369C33.6187 21.5963 33.5302 21.8615 33.3574 22.0442C32.7377 22.7019 32.0952 23.339 31.4496 23.9717C31.0026 24.4087 30.4022 24.4109 30.0103 24.0032C29.6216 23.5977 29.6291 23.0291 30.0567 22.5888C30.6959 21.93 31.3459 21.2832 31.9981 20.6374C32.3187 20.3199 32.7042 20.2514 33.1134 20.4287C33.4946 20.5939 33.6792 20.9081 33.7451 21.369Z" fill="#70C05C"/>
<path d="M35.7834 23.3922C36.1969 23.4531 36.4895 23.626 36.6612 23.9662C36.8383 24.3174 36.8534 24.7066 36.5835 24.9947C35.8741 25.7524 35.1452 26.495 34.3884 27.2049C34.0202 27.5506 33.4565 27.4723 33.11 27.1168C32.7547 26.7526 32.7126 26.1743 33.0711 25.7948C33.7481 25.0795 34.4456 24.3826 35.1571 23.7031C35.3191 23.5498 35.5728 23.4933 35.7834 23.3922Z" fill="#70C05C"/>
</svg>
