<svg width="51" height="50" viewBox="0 0 51 50" fill="none" xmlns="http://www.w3.org/2000/svg">
<path d="M48.5835 29.1469C48.5116 29.4214 48.4454 29.697 48.3689 29.9692C47.6304 32.5744 45.3682 34.3193 42.6472 34.3781C42.0925 34.3896 41.5366 34.3885 40.9819 34.3781C40.0643 34.3619 39.5312 33.8141 39.5301 32.8904C39.529 28.5599 39.6054 24.2282 39.5096 19.9012C39.3874 14.3886 36.8136 10.3418 31.8475 8.05719C24.408 4.63431 15.6034 9.34884 14.1482 17.4424C13.9918 18.3143 13.9108 19.2104 13.9051 20.0961C13.88 24.3251 13.8937 28.5541 13.8937 32.7843C13.8937 33.7657 13.5775 34.2339 12.6267 34.3504C10.6236 34.5972 8.69583 34.3758 7.06024 33.0299C5.62324 31.8478 4.86651 30.3059 4.84254 28.4238C4.82656 27.1298 4.8357 25.8347 4.84027 24.5396C4.8494 21.6392 7.10361 19.0605 9.94564 18.7006C10.3394 18.651 10.7355 18.6245 11.1715 18.5842C11.7136 13.5709 14.0044 9.57257 18.1807 6.74823C21.1174 4.76232 24.392 3.94696 27.9052 4.21682C31.706 4.50975 34.9817 6.03436 37.6868 8.7526C40.3804 11.4593 41.8619 14.7576 42.2317 18.5461C42.8892 18.6418 43.5386 18.658 44.1401 18.8367C46.5359 19.5471 48.0002 21.1536 48.499 23.6389C48.5161 23.7219 48.5538 23.8004 48.5812 23.8811C48.5835 25.6364 48.5835 27.3916 48.5835 29.1469Z" fill="#70C05C"/>
<path d="M26.7089 45.8207C26.0835 45.8207 25.4557 45.8518 24.8314 45.8149C23.3693 45.7284 22.2393 44.4633 22.2804 42.9975C22.3215 41.5317 23.5176 40.3127 24.9638 40.292C26.1302 40.2747 27.2967 40.2747 28.4632 40.292C29.9071 40.3139 31.1032 41.5363 31.142 43.0021C31.1797 44.4679 30.0486 45.7296 28.5865 45.8149C27.9622 45.8518 27.3344 45.8219 26.7089 45.8207Z" fill="#70C05C"/>
<path d="M10.6133 35.9615C11.1406 35.9615 11.6337 35.9615 12.1176 35.9615C13.388 40.3589 16.3087 42.4198 20.8126 42.2929C20.8012 42.5616 20.7818 42.8027 20.7829 43.0425C20.7829 43.2847 20.8023 43.5281 20.8126 43.7691C16.2677 44.4069 11.4031 41.1224 10.6133 35.9615Z" fill="#70C05C"/>
</svg>
