<svg width="155" height="36" viewBox="0 0 155 36" fill="none" xmlns="http://www.w3.org/2000/svg">
<g clip-path="url(#clip0_50_461)">
<path d="M55.3324 12.8047V14.8449H55.3948C56.1289 13.7526 57.3477 12.4662 60.0491 12.4662C62.1507 12.4662 63.7629 13.5359 64.4538 15.1518H64.5162C65.1064 14.3349 65.7829 13.7165 66.5411 13.2786C67.4383 12.7596 68.4364 12.4617 69.6935 12.4617C72.5388 12.4617 75.0579 14.3123 75.0579 18.9795V27.8309H70.7203V19.5978C70.7203 17.2327 69.8662 15.865 68.0909 15.865C66.7906 15.865 65.8453 16.6865 65.4855 17.6976C65.3607 18.0451 65.3031 18.5191 65.3031 18.9163V27.8354H60.9655V19.2638C60.9655 17.2552 60.145 15.8605 58.3937 15.8605C56.9926 15.8605 56.1145 16.8986 55.7546 17.7878C55.6011 18.167 55.5531 18.6048 55.5531 19.0156V27.8309H51.2107V12.8047H55.3324ZM97.4464 12.8047V15.6393H97.5664C98.3629 13.4727 100.253 12.4662 101.914 12.4662C102.331 12.4662 102.561 12.4978 102.897 12.561V16.4969C102.499 16.4428 102.129 16.3886 101.611 16.3886C99.7304 16.3886 98.4205 17.4177 98.0894 19.0291C98.0174 19.3631 97.9934 19.7242 97.9934 20.1395V27.8354H93.5407V12.8047H97.4464ZM108.943 7.82608V12.5565H112.705V16.3841H108.943V22.0307C108.943 23.8588 109.437 24.7435 110.905 24.7435C111.596 24.7435 112.105 24.6622 112.546 24.5584L112.604 27.7316C112.014 27.9392 110.757 28.1649 109.48 28.1649C107.979 28.1649 106.726 27.6729 105.963 26.9101C105.09 26.0389 104.687 24.6126 104.687 22.5814V7.82608H108.943ZM48.1879 27.8309H43.8694V7.82608H48.1879V27.8309ZM36.6721 22.4641C36.6721 22.7394 36.6481 23.0283 36.5666 23.2765C36.2307 24.3192 35.0839 25.1994 33.654 25.1994C32.4593 25.1994 31.5092 24.5629 31.5092 23.2133C31.5092 21.1506 33.9275 20.5773 36.6769 20.5909V22.4641H36.6721ZM40.9857 18.8666C40.9857 15.4588 39.4407 12.4662 34.2154 12.4662C31.5332 12.4662 29.4028 13.1748 28.2416 13.8068L29.0909 16.5421C30.1513 15.9101 31.8451 15.3911 33.4477 15.3911C36.1011 15.3866 36.533 16.8039 36.533 17.7111V17.9278C30.7511 17.9187 27.0997 19.801 27.0997 23.6376C27.0997 25.9802 28.9566 28.1739 32.1906 28.1739C34.1818 28.1739 35.842 27.4291 36.84 26.233H36.936C36.936 26.233 37.5982 28.8284 41.2352 27.8354C41.0433 26.7521 40.9809 25.6011 40.9809 24.2154V18.8666H40.9857ZM5.40689 7.82608C5.85312 9.94301 7.11985 16.0907 7.11985 16.0907C7.65245 18.6184 8.14187 21.2679 8.51134 23.3623H8.57851C8.93838 21.137 9.50457 19.0291 10.1091 16.4202L12.2444 7.82608H16.9706L18.9667 16.6414C19.4897 19.0923 19.9071 20.9836 20.2382 23.263H20.3006C20.6604 20.961 21.1307 18.993 21.6441 16.4744L23.5634 7.82608H28.0977L22.479 27.8309C18.8995 28.5666 17.5272 27.2125 17.0378 25.064C16.5484 22.9109 15.5887 18.817 15.5887 18.817C15.0945 16.5737 14.7106 14.9939 14.4419 12.6919H14.3748C13.9909 14.9713 13.5879 16.5691 12.9929 18.8125L10.6369 27.8354C6.9807 28.5215 5.71397 27.5059 5.01343 24.748C4.40886 22.3873 0.637451 7.83059 0.637451 7.83059H5.40689V7.82608ZM86.3433 22.4641C86.3433 22.7394 86.3193 23.0283 86.2378 23.2765C85.9019 24.3192 84.7551 25.1994 83.3252 25.1994C82.1305 25.1994 81.1804 24.5629 81.1804 23.2133C81.1804 21.1506 83.5987 20.5773 86.3481 20.5909V22.4641H86.3433ZM90.6569 18.8666C90.6569 15.4588 89.1119 12.4662 83.8866 12.4662C81.2044 12.4662 79.074 13.1748 77.9128 13.8068L78.7621 16.5421C79.8225 15.9101 81.5163 15.3911 83.1189 15.3911C85.7675 15.3866 86.2042 16.8039 86.2042 17.7111V17.9278C80.4271 17.9187 76.7757 19.801 76.7757 23.6376C76.7757 25.9802 78.6374 28.1739 81.8666 28.1739C83.8531 28.1739 85.518 27.4291 86.5113 26.233H86.612C86.612 26.233 87.2742 28.8284 90.9112 27.8354C90.7193 26.7521 90.6569 25.6011 90.6569 24.2154V18.8666Z" fill="#041E42"/>
<path d="M130.21 20.9411C130.636 21.6716 130.607 22.487 130.153 22.8594L122.299 28.2844C121.481 28.751 120.257 28.1854 119.564 27.0024C118.865 25.8146 118.99 24.4902 119.808 24.0236L128.503 20.0361C129.048 19.8288 129.784 20.2105 130.21 20.9411ZM140.546 20.9411C140.976 20.2105 141.708 19.8335 142.253 20.0314L150.953 24.0189C151.771 24.4855 151.891 25.8099 151.197 26.9976C150.499 28.1807 149.27 28.7416 148.457 28.2797L140.603 22.8547C140.154 22.487 140.12 21.6669 140.546 20.9411ZM135.376 23.8822C136.232 23.8822 136.935 24.3158 137.03 24.8861L137.877 34.3032C137.877 35.2365 136.772 36 135.38 36C133.993 36 132.884 35.2365 132.884 34.3032L133.725 24.8861C133.821 24.3158 134.524 23.8822 135.376 23.8822ZM140.603 13.1453L148.457 7.71563C149.27 7.24902 150.499 7.8099 151.197 8.99764C151.891 10.1854 151.771 11.5098 150.953 11.9764L142.253 15.9686C141.708 16.1665 140.971 15.7895 140.546 15.0589C140.12 14.3284 140.154 13.513 140.603 13.1453ZM128.503 15.9686L119.808 11.9764C118.994 11.5098 118.87 10.1854 119.564 8.99764C120.257 7.8099 121.486 7.24902 122.299 7.71563L130.153 13.1453C130.607 13.5082 130.636 14.3284 130.21 15.0589C129.784 15.7895 129.048 16.1665 128.503 15.9686ZM133.725 11.1139L132.884 1.69678C132.884 0.763551 133.989 0 135.38 0C136.772 0 137.877 0.763551 137.877 1.69678L137.03 11.1139C136.935 11.6795 136.232 12.1178 135.376 12.1178C134.524 12.1178 133.821 11.6795 133.725 11.1139ZM153.321 28.2467V28.011H153.536C153.608 28.011 153.655 28.0581 153.655 28.1288C153.655 28.1948 153.608 28.2467 153.536 28.2467H153.321ZM153.144 28.6756C153.144 28.6991 153.163 28.7227 153.192 28.7227H153.282C153.306 28.7227 153.33 28.6991 153.33 28.6756V28.4069H153.478L153.598 28.6897C153.608 28.7086 153.622 28.7227 153.641 28.7227H153.751C153.785 28.7227 153.808 28.6897 153.794 28.6567C153.751 28.5719 153.708 28.4823 153.665 28.3928C153.737 28.3692 153.847 28.2985 153.847 28.1288C153.847 27.9497 153.698 27.846 153.55 27.846H153.192C153.168 27.846 153.144 27.8696 153.144 27.8932V28.6756ZM152.756 28.2844C152.756 27.9026 153.072 27.5915 153.459 27.5915C153.847 27.5915 154.162 27.8979 154.162 28.2844C154.162 28.6661 153.852 28.9772 153.459 28.9772C153.067 28.9772 152.756 28.6661 152.756 28.2844ZM152.589 28.2844C152.589 28.7557 152.976 29.1422 153.459 29.1422C153.938 29.1422 154.33 28.7557 154.33 28.2844C154.33 27.813 153.938 27.4265 153.459 27.4265C152.976 27.4265 152.589 27.813 152.589 28.2844Z" fill="#FFC124"/>
</g>
<defs>
<clipPath id="clip0_50_461">
<rect width="153.692" height="36" fill="white" transform="translate(0.637451)"/>
</clipPath>
</defs>
</svg>
